<svg width="32" height="32" viewBox="0 0 32 32" fill="none" xmlns="http://www.w3.org/2000/svg">
<g clip-path="url(#clip0_35_810)">
<path d="M23.5901 7.36917C16.9054 9.3715 14.0108 16.0567 17.125 22.3017C23.8099 20.2993 26.7044 13.6138 23.5901 7.36917Z" fill="#F2701C"/>
<path d="M9.28177 7.36917C15.9665 9.3715 18.8611 16.0567 15.7469 22.3017C9.06202 20.2993 6.16752 13.6138 9.28177 7.36917Z" fill="#F2701C"/>
<path d="M29.1043 11.1249C21.4493 10.4667 15.7777 16.1383 16.436 23.7934C24.091 24.4516 29.7628 18.7797 29.1043 11.1249Z" fill="url(#paint0_linear_35_810)"/>
<path d="M3.76767 11.125C3.10918 18.7798 8.78099 24.4516 16.436 23.7934C17.0942 16.1383 11.4226 10.4668 3.76767 11.125Z" fill="url(#paint1_linear_35_810)"/>
<path d="M16.4358 5.87752C10.5575 10.8249 10.5575 18.8459 16.436 23.7934C22.3144 18.8459 22.3144 10.8247 16.4358 5.87752Z" fill="url(#paint2_linear_35_810)"/>
<path d="M30.158 17.1391H1.84215C1.64719 17.1391 1.49795 17.306 1.51023 17.5005C1.69659 20.4575 4.15392 26.1225 7.15788 26.1225H24.8423C27.8463 26.1225 30.3036 20.4575 30.4899 17.5005C30.5022 17.306 30.353 17.1391 30.158 17.1391Z" fill="url(#paint3_linear_35_810)"/>
<g opacity="0.4">
<path d="M30.4829 17.4508C30.2954 19.9958 27.8454 25.3359 24.8422 25.3359H7.15777C4.1546 25.3359 1.70458 19.9958 1.51704 17.4508C1.51576 17.466 1.51004 17.4799 1.51081 17.4957C1.69326 20.4591 4.16841 26.1225 7.15777 26.1225H24.8422C27.8321 26.1225 30.3071 20.4533 30.4892 17.4957C30.4899 17.4799 30.4842 17.466 30.4829 17.4508Z" fill="url(#paint4_linear_35_810)"/>
</g>
<g opacity="0.4">
<path d="M30.4829 17.4508C30.2954 19.9958 27.8454 25.3359 24.8422 25.3359H7.15777C4.1546 25.3359 1.70458 19.9958 1.51704 17.4508C1.51576 17.466 1.51004 17.4799 1.51081 17.4957C1.69326 20.4591 4.16841 26.1225 7.15777 26.1225H24.8422C27.8321 26.1225 30.3071 20.4533 30.4892 17.4957C30.4899 17.4799 30.4842 17.466 30.4829 17.4508Z" fill="#62DBFB"/>
</g>
<path d="M26.1372 19.6341L27.2637 19.4611L26.1372 19.288L26.5056 18.7859L26.0035 19.1543L25.8305 18.0278L25.6574 19.1543L25.1553 18.7859L25.5237 19.288L24.3972 19.461L25.5237 19.6341L25.1553 20.1362L25.6574 19.7678L25.8305 20.8943L26.0035 19.7678L26.5056 20.1362L26.1372 19.6341Z" fill="white"/>
</g>
<defs>
<linearGradient id="paint0_linear_35_810" x1="21.1527" y1="15.8418" x2="25.6599" y2="20.349" gradientUnits="userSpaceOnUse">
<stop stop-color="#F69A1D"/>
<stop offset="1" stop-color="#F48722"/>
</linearGradient>
<linearGradient id="paint1_linear_35_810" x1="12.7089" y1="14.8522" x2="8.36299" y2="19.1976" gradientUnits="userSpaceOnUse">
<stop stop-color="#F69A1D"/>
<stop offset="1" stop-color="#F48722"/>
</linearGradient>
<linearGradient id="paint2_linear_35_810" x1="16.4361" y1="5.04332" x2="16.4361" y2="12.6171" gradientUnits="userSpaceOnUse">
<stop stop-color="#F69A1D"/>
<stop offset="1" stop-color="#F48722"/>
</linearGradient>
<linearGradient id="paint3_linear_35_810" x1="16.0001" y1="20.9165" x2="16.0001" y2="24.8447" gradientUnits="userSpaceOnUse">
<stop stop-color="#C8EFFE" stop-opacity="0.7"/>
<stop offset="1" stop-color="#99E6FC"/>
</linearGradient>
<linearGradient id="paint4_linear_35_810" x1="1.51062" y1="21.7866" x2="30.4893" y2="21.7866" gradientUnits="userSpaceOnUse">
<stop stop-color="#C8EFFE" stop-opacity="0.7"/>
<stop offset="1" stop-color="#99E6FC" stop-opacity="0.7"/>
</linearGradient>
<clipPath id="clip0_35_810">
<rect width="32" height="32" fill="white"/>
</clipPath>
</defs>
</svg>
